# xmcd
#
# Track frame offsets:
#	150
#	19130
#	37267
#	51977
#	70855
#	87225
#	104787
#	122677
#	138565
#	153057
#	169645
#	188627
#	206765
#	221475
#	240352
#	256722
#	274285
#	292175
#	308065
#	322555
#
# Disc length: 4520 seconds
#
# Revision: 0
# Processed by: cddbd v1.4PL0 Copyright (c) Steve Scherf et al.
# Submitted via: audiograbber 1.82.02
#
DISCID=2111a614
DTITLE=Various Artist - THC0009
DYEAR=2000
DGENRE=Country
TTITLE0=Dixie Chicks, The (GV) - Cold Day In July
TTITLE1=Gill, Vince (GV) - Feels Like Love
TTITLE2=Lawrence, Tracy (GV) - Lonely
TTITLE3=Wright, Chely (GV) - She Went Out For Cigarettes
TTITLE4=Keith, Toby (GV) - Country Comes To Town
TTITLE5=Wilkinsons, The (GV) - Shame On Me
TTITLE6=Holy, Steve (GV) - Bule Moon
TTITLE7=McBride, Martina (GV) - There You Are
TTITLE8=Messina, Jo Dee (GV) - That's The Way
TTITLE9=Warren Brothers, The and Sara Evans (GV) - That's The Beat Of A Heart
TTITLE10=Dixie Chicks, The - Cold Day In July
TTITLE11=Gill, Vince - Feels Like Love
TTITLE12=Lawrence, Tracy - Lonely
TTITLE13=Wright, Chely - She Went Out For Cigarettes
TTITLE14=Keith, Toby - Country Comes To Town
TTITLE15=Wilkinsons, The - Shame On Me
TTITLE16=Holy, Steve - Bule Moon
TTITLE17=McBride, Martina - There You Are
TTITLE18=Messina, Jo Dee - That's The Way
TTITLE19=Warren Brothers, The and Sara Evans - That's The Beat Of A Heart
EXTD=
EXTT0=
EXTT1=
EXTT2=
EXTT3=
EXTT4=
EXTT5=
EXTT6=
EXTT7=
EXTT8=
EXTT9=
EXTT10=
EXTT11=
EXTT12=
EXTT13=
EXTT14=
EXTT15=
EXTT16=
EXTT17=
EXTT18=
EXTT19=
PLAYORDER=
